<svg xmlns="http://www.w3.org/2000/svg" width="24.412" height="21.567" viewBox="0 0 24.412 21.567">
    <g id="prefix__like_1_" data-name="like (1)">
        <g id="prefix__Grupo_656" data-name="Grupo 656">
            <path id="prefix__Trazado_918" fill="#c47b5b" d="M22.631 31.955a6.149 6.149 0 0 0-9.817.706 9.36 9.36 0 0 0-.608.985 9.351 9.351 0 0 0-.608-.985 6.149 6.149 0 0 0-9.817-.706A7.4 7.4 0 0 0 0 36.869a9.062 9.062 0 0 0 2.5 5.946 55.563 55.563 0 0 0 6.246 5.836c.945.805 1.922 1.638 2.962 2.547l.031.027a.715.715 0 0 0 .942 0l.031-.027c1.04-.91 2.017-1.742 2.962-2.548a55.555 55.555 0 0 0 6.246-5.836 9.062 9.062 0 0 0 2.5-5.946 7.4 7.4 0 0 0-1.789-4.913zm-7.889 15.607c-.814.694-1.652 1.408-2.536 2.176-.884-.768-1.722-1.482-2.536-2.176-4.962-4.228-8.24-7.021-8.24-10.693A5.972 5.972 0 0 1 2.854 32.9a4.774 4.774 0 0 1 3.63-1.634 4.822 4.822 0 0 1 3.947 2.222 8.479 8.479 0 0 1 1.095 2.177.715.715 0 0 0 1.36 0 8.48 8.48 0 0 1 1.095-2.177 4.72 4.72 0 0 1 7.577-.588 5.972 5.972 0 0 1 1.424 3.969c0 3.672-3.282 6.465-8.24 10.693z" data-name="Trazado 918" transform="translate(0 -29.836)"/>
        </g>
    </g>
</svg>
