<svg xmlns="http://www.w3.org/2000/svg" width="24.494" height="27.105" viewBox="0 0 24.494 27.105">
    <defs>
        <style>
            .prefix__cls-1{fill:none;stroke:#c47b5b;stroke-linecap:round;stroke-linejoin:round}
        </style>
    </defs>
    <g id="prefix__Icon_feather-share-2" data-name="Icon feather-share-2" transform="translate(.5 .5)">
        <path id="prefix__Trazado_20858" d="M30.331 6.916A3.916 3.916 0 1 1 26.416 3a3.916 3.916 0 0 1 3.915 3.916z" class="prefix__cls-1" data-name="Trazado 20858" transform="translate(-6.837 -3)"/>
        <path id="prefix__Trazado_20859" d="M12.331 17.416A3.916 3.916 0 1 1 8.416 13.5a3.916 3.916 0 0 1 3.915 3.916z" class="prefix__cls-1" data-name="Trazado 20859" transform="translate(-4.5 -4.363)"/>
        <path id="prefix__Trazado_20860" d="M30.331 27.916A3.916 3.916 0 1 1 26.416 24a3.916 3.916 0 0 1 3.915 3.916z" class="prefix__cls-1" data-name="Trazado 20860" transform="translate(-6.837 -5.727)"/>
        <path id="prefix__Trazado_20861" d="M12.885 20.265L21.8 25.46" class="prefix__cls-1" data-name="Trazado 20861" transform="translate(-5.589 -5.242)"/>
        <path id="prefix__Trazado_20862" d="M21.787 9.765l-8.9 5.195" class="prefix__cls-1" data-name="Trazado 20862" transform="translate(-5.589 -3.878)"/>
    </g>
</svg>
