<svg xmlns="http://www.w3.org/2000/svg" id="prefix__shopping-cart_2_" width="23.783" height="25.592" data-name="shopping-cart (2)" viewBox="0 0 23.783 25.592">
    <path id="prefix__Trazado_919" fill="#c47b5b" d="M23.978 16.851h14.1a2.909 2.909 0 0 0 2.9-2.9v-6a.067.067 0 0 0-.005-.032c0-.011-.005-.026-.005-.037s-.005-.021-.005-.032a.337.337 0 0 1-.011-.037c-.005-.011-.005-.021-.011-.032s-.005-.021-.011-.032a.257.257 0 0 1-.016-.037.115.115 0 0 0-.016-.026l-.016-.032c-.005-.011-.011-.016-.016-.026s-.016-.021-.021-.032a.092.092 0 0 0-.021-.026c-.005-.011-.016-.016-.021-.026s-.016-.016-.021-.026-.016-.016-.021-.021l-.026-.026c-.011-.005-.016-.016-.026-.021s-.021-.016-.032-.021-.016-.011-.026-.016a.11.11 0 0 1-.032-.021l-.032-.016-.032-.016-.032-.016c-.011-.005-.021-.005-.032-.011a.1.1 0 0 0-.037-.011.228.228 0 0 1-.026-.005.116.116 0 0 0-.042-.005c-.005 0-.011-.005-.021-.005L22.5 4.843V2.35a.323.323 0 0 0-.005-.074.04.04 0 0 0-.005-.021c0-.016-.005-.032-.005-.047s-.005-.026-.011-.042-.005-.016-.005-.026l-.016-.047c0-.005-.005-.016-.005-.021a.157.157 0 0 0-.021-.042c-.005-.005-.005-.016-.011-.021a.11.11 0 0 0-.021-.032c-.005-.011-.011-.016-.016-.026l-.016-.026c-.005-.01-.016-.021-.021-.032l-.016-.016-.026-.032-.016-.016a.228.228 0 0 0-.037-.032l-.021-.016-.032-.026a.485.485 0 0 0-.042-.026c-.005-.005-.011-.005-.016-.011l-.068-.032-3.881-1.63a.711.711 0 1 0-.552 1.31l3.44 1.452v15.558a2.907 2.907 0 0 0 2.53 2.877 2.865 2.865 0 1 0 5.323 1.473 2.812 2.812 0 0 0-.394-1.446h6.385a2.826 2.826 0 0 0-.394 1.446 2.867 2.867 0 1 0 2.867-2.867H23.978a1.485 1.485 0 0 1-1.478-1.483v-1.925a2.936 2.936 0 0 0 1.478.4zm3.535 5.87a1.446 1.446 0 1 1-1.446-1.446 1.449 1.449 0 0 1 1.446 1.445zm11.329 0a1.446 1.446 0 1 1-1.442-1.447 1.449 1.449 0 0 1 1.442 1.446zm-.763-7.29h-14.1a1.485 1.485 0 0 1-1.479-1.484V6.273l17.063 2.351v5.318a1.486 1.486 0 0 1-1.483 1.488z" data-name="Trazado 919" transform="translate(-17.2)"/>
</svg>
