<svg xmlns="http://www.w3.org/2000/svg" width="16.58" height="16.58" viewBox="0 0 16.58 16.58">
    <defs>
        <style>
            .prefix__cls-1{fill:#63165f}
        </style>
    </defs>
    <g id="prefix__Grupo_1549" data-name="Grupo 1549" transform="translate(-1213.21 -565.21)">
        <path id="prefix__Op_component_1" d="M1461.161 720.74a2.163 2.163 0 1 0 2.163 2.162 2.162 2.162 0 0 0-2.163-2.162zm0 3.6a1.442 1.442 0 1 1 1.442-1.442 1.443 1.443 0 0 1-1.442 1.446z" class="prefix__cls-1" data-name="Op component 1" transform="translate(-245.789 -143.275)"/>
        <path id="prefix__Op_component_2" d="M1461.161 703a2.163 2.163 0 1 0 2.163 2.162 2.162 2.162 0 0 0-2.163-2.162zm0 3.6a1.442 1.442 0 1 1 1.442-1.442 1.443 1.443 0 0 1-1.442 1.442z" class="prefix__cls-1" data-name="Op component 2" transform="translate(-245.789 -137.789)"/>
        <path id="prefix__Op_component_3" d="M1461.161 711.847a2.163 2.163 0 1 0 2.163 2.162 2.162 2.162 0 0 0-2.163-2.162zm0 3.6a1.442 1.442 0 1 1 1.442-1.442 1.444 1.444 0 0 1-1.442 1.446z" class="prefix__cls-1" data-name="Op component 3" transform="translate(-245.789 -140.525)"/>
        <path id="prefix__Op_component_4" d="M1470.032 720.74a2.163 2.163 0 1 0 2.163 2.162 2.162 2.162 0 0 0-2.163-2.162zm0 3.6a1.442 1.442 0 1 1 1.442-1.442 1.443 1.443 0 0 1-1.442 1.446z" class="prefix__cls-1" data-name="Op component 4" transform="translate(-248.532 -143.275)"/>
        <path id="prefix__Op_component_5" d="M1470.032 703a2.163 2.163 0 1 0 2.163 2.162 2.162 2.162 0 0 0-2.163-2.162zm0 3.6a1.442 1.442 0 1 1 1.442-1.442 1.443 1.443 0 0 1-1.442 1.442z" class="prefix__cls-1" data-name="Op component 5" transform="translate(-248.532 -137.789)"/>
        <path id="prefix__Op_component_6" d="M1470.032 711.847a2.163 2.163 0 1 0 2.163 2.162 2.162 2.162 0 0 0-2.163-2.162zm0 3.6a1.442 1.442 0 1 1 1.442-1.442 1.443 1.443 0 0 1-1.442 1.446z" class="prefix__cls-1" data-name="Op component 6" transform="translate(-248.532 -140.525)"/>
        <path id="prefix__Op_component_7" d="M1478.9 720.74a2.163 2.163 0 1 0 2.163 2.162 2.162 2.162 0 0 0-2.163-2.162zm0 3.6a1.442 1.442 0 1 1 1.442-1.442 1.443 1.443 0 0 1-1.442 1.446z" class="prefix__cls-1" data-name="Op component 7" transform="translate(-251.275 -143.275)"/>
        <path id="prefix__Op_component_8" d="M1478.9 707.324a2.163 2.163 0 1 0-2.162-2.163 2.163 2.163 0 0 0 2.162 2.163zm0-3.6a1.442 1.442 0 1 1-1.442 1.441 1.443 1.443 0 0 1 1.442-1.446z" class="prefix__cls-1" data-name="Op component 8" transform="translate(-251.275 -137.789)"/>
        <path id="prefix__Op_component_9" d="M1478.9 711.847a2.163 2.163 0 1 0 2.163 2.162 2.162 2.162 0 0 0-2.163-2.162zm0 3.6a1.442 1.442 0 1 1 1.442-1.442 1.444 1.444 0 0 1-1.442 1.446z" class="prefix__cls-1" data-name="Op component 9" transform="translate(-251.275 -140.525)"/>
    </g>
</svg>
