<svg xmlns="http://www.w3.org/2000/svg" id="prefix__Icon_ionic-ios-card" width="69.128" height="51.846" data-name="Icon ionic-ios-card" viewBox="0 0 69.128 51.846">
    <defs>
        <style>
            .prefix__cls-1{fill:#00aeca}
        </style>
    </defs>
    <path id="prefix__Trazado_20866" d="M71.378 12a5.119 5.119 0 0 0-4.938-5.25H7.188A5.119 5.119 0 0 0 2.25 12v7.882h69.128z" class="prefix__cls-1" data-name="Trazado 20866" transform="translate(-2.25 -6.75)"/>
    <path id="prefix__Trazado_20867" d="M2.25 42.023a5.119 5.119 0 0 0 4.938 5.255H66.44a5.119 5.119 0 0 0 4.938-5.255V15.75H2.25zm21.911-7.882h25.306a2.239 2.239 0 0 1 2.16 2.3 2.239 2.239 0 0 1-2.16 2.3H24.161A2.239 2.239 0 0 1 22 36.44a2.239 2.239 0 0 1 2.161-2.299zm-11.11 0H14.9a2.239 2.239 0 0 1 2.16 2.3 2.239 2.239 0 0 1-2.16 2.3h-1.849a2.239 2.239 0 0 1-2.16-2.3 2.239 2.239 0 0 1 2.16-2.3z" class="prefix__cls-1" data-name="Trazado 20867" transform="translate(-2.25 4.568)"/>
</svg>
