<svg xmlns="http://www.w3.org/2000/svg" width="51.846" height="69.128" viewBox="0 0 51.846 69.128">
    <path id="prefix__Icon_ionic-ios-lock" fill="#c1c1c1" d="M52.115 27.3h-3.888v-7.76c0-8.757-6.8-16.035-15.343-16.168a15.8 15.8 0 0 0-15.765 15.956V27.3h-3.888a6.585 6.585 0 0 0-6.481 6.651v31.9a6.585 6.585 0 0 0 6.481 6.649h38.884a6.585 6.585 0 0 0 6.485-6.644v-31.9a6.585 6.585 0 0 0-6.485-6.656zM34.941 48.042v11.433a2.359 2.359 0 0 1-2.155 2.393 2.3 2.3 0 0 1-2.386-2.327v-11.5a5.344 5.344 0 0 1-2.9-5.268 5.194 5.194 0 1 1 7.437 5.268zM43.69 27.3H21.656v-7.972a11.348 11.348 0 0 1 3.24-7.976 10.761 10.761 0 0 1 15.554 0 11.348 11.348 0 0 1 3.24 7.976z" data-name="Icon ionic-ios-lock" transform="translate(-6.75 -3.374)"/>
</svg>
