<svg xmlns="http://www.w3.org/2000/svg" id="prefix__like_1_" width="17.243" height="15.233" data-name="like (1)" viewBox="0 0 17.243 15.233">
    <g id="prefix__Grupo_656" data-name="Grupo 656">
        <path id="prefix__Trazado_918" fill="#c47b5b" d="M15.985 31.332a4.343 4.343 0 0 0-6.934.5 6.611 6.611 0 0 0-.429.7 6.605 6.605 0 0 0-.429-.7 4.343 4.343 0 0 0-6.934-.5A5.227 5.227 0 0 0 0 34.8 6.4 6.4 0 0 0 1.763 39a39.245 39.245 0 0 0 4.412 4.122c.667.569 1.357 1.157 2.092 1.8l.022.019a.505.505 0 0 0 .665 0l.022-.019c.735-.643 1.425-1.231 2.092-1.8A39.24 39.24 0 0 0 15.48 39a6.4 6.4 0 0 0 1.763-4.2 5.227 5.227 0 0 0-1.258-3.468zm-5.572 11.024c-.575.49-1.167.995-1.791 1.537-.622-.542-1.217-1.046-1.792-1.537C3.325 39.37 1.01 37.4 1.01 34.8A4.218 4.218 0 0 1 2.016 32a3.372 3.372 0 0 1 2.564-1.154 3.406 3.406 0 0 1 2.788 1.569 5.989 5.989 0 0 1 .773 1.538.505.505 0 0 0 .961 0 5.99 5.99 0 0 1 .773-1.538A3.334 3.334 0 0 1 15.227 32a4.218 4.218 0 0 1 1.006 2.8c-.001 2.6-2.316 4.57-5.82 7.556z" data-name="Trazado 918" transform="translate(0 -29.836)"/>
    </g>
</svg>
