<svg xmlns="http://www.w3.org/2000/svg" id="prefix__Money_Case" width="26.632" height="25.864" data-name="Money Case" viewBox="0 0 26.632 25.864">
    <defs>
        <style>
            .prefix__cls-1{fill:#3e3a39}
        </style>
    </defs>
    <path id="prefix__Fill_929" d="M25.825 25.864H.807A.778.778 0 0 1 0 25.121V.743A.778.778 0 0 1 .807 0h25.018a.778.778 0 0 1 .807.743v24.378a.778.778 0 0 1-.807.743zM1.614 1.485v22.893h23.4V1.485z" class="prefix__cls-1" data-name="Fill 929"/>
    <path id="prefix__Fill_930" d="M18.845 19.108H.449A.432.432 0 0 1 0 18.7V.413A.433.433 0 0 1 .449 0h18.4a.432.432 0 0 1 .448.413V18.7a.432.432 0 0 1-.452.408zM.9.825v17.458h17.5V.825z" class="prefix__cls-1" data-name="Fill 930" transform="translate(3.669 3.378)"/>
    <path id="prefix__Fill_931" d="M.807 4.533A.777.777 0 0 1 0 3.79V.743A.777.777 0 0 1 .807 0a.777.777 0 0 1 .807.743V3.79a.776.776 0 0 1-.807.743" class="prefix__cls-1" data-name="Fill 931" transform="translate(3.311 6.094)"/>
    <path id="prefix__Fill_932" d="M.807 4.533A.777.777 0 0 1 0 3.79V.743A.777.777 0 0 1 .807 0a.777.777 0 0 1 .807.743V3.79a.777.777 0 0 1-.807.743" class="prefix__cls-1" data-name="Fill 932" transform="translate(3.311 15.236)"/>
    <path id="prefix__Fill_933" d="M3.7 6.818A3.57 3.57 0 0 1 0 3.409 3.57 3.57 0 0 1 3.7 0a3.57 3.57 0 0 1 3.7 3.409 3.57 3.57 0 0 1-3.7 3.409zm0-5.333a2.014 2.014 0 0 0-2.09 1.924A2.014 2.014 0 0 0 3.7 5.333a2.014 2.014 0 0 0 2.09-1.924A2.014 2.014 0 0 0 3.7 1.485z" class="prefix__cls-1" data-name="Fill 933" transform="translate(7.223 9.142)"/>
    <path id="prefix__Fill_934" d="M.448 6.735A.432.432 0 0 1 0 6.323V.413A.432.432 0 0 1 .448 0 .431.431 0 0 1 .9.413v5.91a.431.431 0 0 1-.448.413" class="prefix__cls-1" data-name="Fill 934" transform="translate(18.755 9.195)"/>
    <path id="prefix__Fill_935" d="M.807 2.247A.777.777 0 0 1 0 1.5V.743A.777.777 0 0 1 .807 0a.777.777 0 0 1 .807.743V1.5a.777.777 0 0 1-.807.743" class="prefix__cls-1" data-name="Fill 935" transform="translate(18.396 8.865)"/>
    <path id="prefix__Fill_936" d="M.807 2.248A.777.777 0 0 1 0 1.505V.743A.778.778 0 0 1 .807 0a.778.778 0 0 1 .807.743v.762a.777.777 0 0 1-.807.743" class="prefix__cls-1" data-name="Fill 936" transform="translate(18.396 14.012)"/>
    <path id="prefix__Fill_937" d="M1.276 2.35A1.23 1.23 0 0 1 0 1.175 1.23 1.23 0 0 1 1.276 0a1.23 1.23 0 0 1 1.276 1.175A1.23 1.23 0 0 1 1.276 2.35zm0-1.524a.366.366 0 0 0-.379.35.365.365 0 0 0 .379.349.365.365 0 0 0 .379-.349.366.366 0 0 0-.379-.351z" class="prefix__cls-1" data-name="Fill 937" transform="translate(9.651 11.376)"/>
</svg>
