<svg xmlns="http://www.w3.org/2000/svg" width="17.594" height="19.438" viewBox="0 0 17.594 19.438">
    <defs>
        <style>
            .prefix__cls-1{fill:none;stroke:#c47b5b;stroke-linecap:round;stroke-linejoin:round}
        </style>
    </defs>
    <g id="prefix__Icon_feather-share-2" data-name="Icon feather-share-2" transform="translate(-4 -2.5)">
        <path id="prefix__Trazado_20858" d="M28.031 5.766A2.766 2.766 0 1 1 25.266 3a2.766 2.766 0 0 1 2.765 2.766z" class="prefix__cls-1" data-name="Trazado 20858" transform="translate(-6.937)"/>
        <path id="prefix__Trazado_20859" d="M10.031 16.266A2.766 2.766 0 1 1 7.266 13.5a2.766 2.766 0 0 1 2.765 2.766z" class="prefix__cls-1" data-name="Trazado 20859" transform="translate(0 -4.047)"/>
        <path id="prefix__Trazado_20860" d="M28.031 26.766A2.766 2.766 0 1 1 25.266 24a2.766 2.766 0 0 1 2.765 2.766z" class="prefix__cls-1" data-name="Trazado 20860" transform="translate(-6.937 -8.093)"/>
        <path id="prefix__Trazado_20861" d="M12.885 20.265l6.3 3.669" class="prefix__cls-1" data-name="Trazado 20861" transform="translate(-3.231 -6.654)"/>
        <path id="prefix__Trazado_20862" d="M19.172 9.765l-6.287 3.669" class="prefix__cls-1" data-name="Trazado 20862" transform="translate(-3.231 -2.607)"/>
    </g>
</svg>
