<svg xmlns="http://www.w3.org/2000/svg" width="11.525" height="12.694" viewBox="0 0 11.525 12.694">
    <defs>
        <style>
            .prefix__cls-1{fill:none;stroke:#000;stroke-linecap:round;stroke-linejoin:round}
        </style>
    </defs>
    <g id="prefix__Icon_feather-share-2" data-name="Icon feather-share-2" transform="translate(-4 -2.5)">
        <path id="prefix__Trazado_1660" d="M26.008 4.754A1.754 1.754 0 1 1 24.254 3a1.754 1.754 0 0 1 1.754 1.754z" class="prefix__cls-1" data-name="Trazado 1660" transform="translate(-10.984)"/>
        <path id="prefix__Trazado_1661" d="M8.008 15.254A1.754 1.754 0 1 1 6.254 13.5a1.754 1.754 0 0 1 1.754 1.754z" class="prefix__cls-1" data-name="Trazado 1661" transform="translate(0 -6.407)"/>
        <path id="prefix__Trazado_1662" d="M26.008 25.754A1.754 1.754 0 1 1 24.254 24a1.754 1.754 0 0 1 1.754 1.754z" class="prefix__cls-1" data-name="Trazado 1662" transform="translate(-10.984 -12.814)"/>
        <path id="prefix__Trazado_1663" d="M12.885 20.265l3.994 2.327" class="prefix__cls-1" data-name="Trazado 1663" transform="translate(-5.117 -10.535)"/>
        <path id="prefix__Trazado_1664" d="M16.873 9.765l-3.988 2.327" class="prefix__cls-1" data-name="Trazado 1664" transform="translate(-5.117 -4.128)"/>
    </g>
</svg>
