<svg xmlns="http://www.w3.org/2000/svg" id="prefix__shopping-cart_2_" width="16.798" height="18.076" data-name="shopping-cart (2)" viewBox="0 0 16.798 18.076">
    <path id="prefix__Trazado_919" fill="#c47b5b" d="M21.988 11.9h9.96A2.055 2.055 0 0 0 34 9.851V5.616a.047.047 0 0 0 0-.022v-.026-.022a.238.238 0 0 1-.007-.026c0-.007 0-.015-.007-.022s0-.015-.007-.022a.182.182 0 0 1-.011-.026.081.081 0 0 0-.011-.019l-.011-.022c0-.007-.007-.011-.011-.019s-.011-.015-.015-.022a.065.065 0 0 0-.015-.019c0-.007-.011-.011-.015-.019s-.011-.011-.015-.019-.025-.011-.029-.011l-.019-.019c-.007 0-.011-.011-.019-.015s-.015-.011-.022-.015l-.019-.011a.078.078 0 0 1-.022-.015l-.022-.011L33.7 5.2l-.022-.011c-.007 0-.015 0-.022-.007a.069.069 0 0 0-.026-.007.161.161 0 0 1-.019 0 .082.082 0 0 0-.03 0h-.015L20.944 3.421V1.66a.229.229 0 0 0 0-.052.028.028 0 0 0 0-.015V1.56c0-.011 0-.019-.007-.03s0-.011 0-.019l-.011-.033v-.015a.111.111 0 0 0-.015-.03s0-.011-.007-.015a.078.078 0 0 0-.034-.018c0-.007-.007-.011-.011-.019l-.011-.019c-.004-.008-.011-.015-.015-.022l-.011-.011L20.8 1.3l-.011-.011a.161.161 0 0 0-.026-.022l-.015-.011c-.007-.007-.015-.011-.022-.019l-.03-.019s-.007 0-.011-.007l-.048-.022L17.9.04a.5.5 0 1 0-.39.925l2.43 1.025v10.989a2.053 2.053 0 0 0 1.787 2.032 2.024 2.024 0 1 0 3.76 1.04 1.986 1.986 0 0 0-.287-1.021h4.51a2 2 0 0 0-.279 1.022 2.025 2.025 0 1 0 2.025-2.025h-9.468a1.049 1.049 0 0 1-1.048-1.048V11.62a2.074 2.074 0 0 0 1.048.28zm2.5 4.146a1.022 1.022 0 1 1-1.022-1.022 1.023 1.023 0 0 1 1.018 1.024zm8 0a1.022 1.022 0 1 1-1.022-1.022 1.023 1.023 0 0 1 1.02 1.024zm-.54-5.146h-9.96a1.049 1.049 0 0 1-1.048-1.049v-5.42L33 6.092v3.755a1.05 1.05 0 0 1-1.052 1.053z" data-name="Trazado 919" transform="translate(-17.2)"/>
</svg>
