<svg xmlns="http://www.w3.org/2000/svg" id="prefix__shopping-basket-button" width="15.532" height="13.609" viewBox="0 0 15.532 13.609">
    <g id="prefix__shopping-basket">
        <path id="prefix__Trazado_3" fill="#fff" d="M11.542 39.412l-3.135-4.7a.88.88 0 0 0-.57-.285.648.648 0 0 0-.57.285l-3.135 4.7H.712a.673.673 0 0 0-.712.713v.214l1.781 6.626a1.452 1.452 0 0 0 1.354 1.069H12.4a1.373 1.373 0 0 0 1.354-1.069l1.781-6.626v-.214a.673.673 0 0 0-.712-.712zm-5.842 0l2.137-3.135 2.137 3.135zm2.137 5.7a1.425 1.425 0 1 1 1.425-1.425 1.429 1.429 0 0 1-1.425 1.425z" data-name="Trazado 3" transform="translate(0 -34.425)"/>
    </g>
</svg>
